/* XPM */
static char *_13fc86ac5de4962bb82571066d97286wCBJOu3stTyGsPKF[] = {
/* columns rows colors chars-per-pixel */
"80 112 23 1 ",
"  c None",
". c #291930",
"X c #3D1D35",
"o c #302838",
"O c #403038",
"+ c #372972",
"@ c #683148",
"# c #704850",
"$ c #685858",
"% c #6B5874",
"& c #B93A41",
"* c #B24C4A",
"= c #906860",
"- c #897969",
"; c #A88068",
": c #A59A7A",
"> c #303898",
", c #3058D0",
"< c #3078E8",
"1 c #30B0F8",
"2 c #A09088",
"3 c #C8C0B0",
"4 c #F0E8D8",
/* pixels */
"                                                                                ",
"                                                                                ",
"                                                                                ",
"                                                                                ",
"                                                                                ",
"                                                                                ",
"                                                                                ",
"                                                                                ",
"                                   ##########                                   ",
"                                  #=====#====#                                  ",
"                                  #=====##===#                                  ",
"                                  #=====##===#                                  ",
"                                  ##=====#===#                                  ",
"              $4444444444444$    +##=========#>                                 ",
"             $242222222222242$  >>##=#=======#,,                                ",
"             $24ooooooooooo42$ ><>##======;==#,1,                               ",
"             $24$$$oo$$oooo42$><<>###=====;==#,11,                              ",
"             $24ooooooooooo42$<<<>###========#,111,                             ",
"             $244444444444442$<<<>###========#,1111,                            ",
"             $$$$$$$$$$$$$$$$$<<,+#=#====;===#><1111,                           ",
"             $2222$$22222$222$<,>>#======;===#,,<1111,                          ",
"             $33332$333332333$,><>#======;===#,1,<111,,                         ",
"               ooooooooooooo<,><<>#=====;;===#,11,<11,1,                        ",
"               $$$$$$$$$$$$$,><<<>#==;==;;===#,111,<1,11,                       ",
"               $22222$22222$><<<<>#==;==;;===#,1111,<,111,                      ",
"               $33333$33322$<<<<,+#==;==;====#><1111,,1111,                     ",
"               $3333$$33332$<<<,>>#==========#,,<1111,<1111,                    ",
"               $$$$$$$$$$22$<<,><>#==;=======#,1,<1111,<1111,                   ",
"               $32333332222$<,><<>#=;;=;=====#,11,<111,,<111,>                  ",
"               $32333333222$,><<<>#=;;=;=====#,111,<11,1,<11,1>                 ",
"               $3233333322$+><<<<>#=;;=;;;===#,1111,<1,11,<1,11,                ",
"               $$2$$$$$$2$+><<<<,+#==;=;;;===#><1111,<,111,<,111,               ",
"              >$3333$222$+><<<<,>>#==;=;;;;==#,,<1111,,1111,,1111,              ",
"             ><$333332$$+>><<<,><>#====;;;;==#,1,<111,,<1111,<1111,             ",
"            ><<$33332$$+><><<,><<>#===;;;;;==#,11,<11,1,<1111,<1111,            ",
"           >><<$$$$$$$+><<><,><<<>#===;;;;;==#,111,<1,11,<111,,<111,,           ",
"          ><><<$22$$$+><<<>,><<<<>#==;;;;;;==#,1111,<,111,<11,1,<11,1,          ",
"         ><<><,$$$$$+><<<<>><<<<,+#==;;;;;===#><1111,,1111,<1,11,<1,11,         ",
"        ><<<>,+$o$o+><<<<,><<<<,>>#===;;;;=;=#,,<1111,<1111,<,111,<,111,        ",
"       ><<<<>++oooo><<<<,><<<<,><>#===;;;;===#,1,<1111,<1111,,1111,,1111,       ",
"      ><<<<,+++ooo>><<<,>><<<,><<>#====;;==;=#,11,<111,,<111,,<1111,<1111,      ",
"     ><<<<,>+++oo><><<,><><<,><<<>#=;======;=#,111,<11,1,<11,1,<1111,<1111,     ",
"    <><<<,>>+++o><<><,><<><,><<<<>#==;====;==#,1111,<1,11,<1,11,<111,,<111,1    ",
"   <<><<,><>+++><<<>,><<<>,><<<<,+#==;;;;;;==#><1111,<,111,<,111,<11,1,<11,11   ",
"  <<<><,><<>++><<<<>><<<<>><<<<,>>##==;;;;==##,,<1111,,1111,,1111,<1,11,<1,111  ",
"  <<<>,><<<>+><<<<,><<<<,>><<<,><>X###====###X,1,<111,,<1111,<1111,<,111,<,111  ",
"  <<<>><<<<>><<<<,><<<<,><><<,><<>XO########OX,11,<11,1,<1111,<1111,,1111,,111  ",
"  <<,><<<<,>><<<,>><<<,><<><,><<<>XOOO####OOOX,111,<1,11,<111,,<111,,<1111,<11  ",
"  <,><<<<,><><<,><><<,><<<>,><<<<>XOOOOOOOOOOX,1111,<,111,<11,1,<11,1,<1111,<1  ",
"  ,>><<<,><<><,><<><,><<<<>><<<<,>XO##OOOO##OX,<1111,,1111,<1,11,<1,11,<111,,<  ",
"  <<><<,><<<>,><<<>,><<<<,><<<<,>+XO########OX>,<1111,<1111,<,111,<,111,<11,11  ",
" <<<><,><<<<>><<<<>><<<<,><<<<,>++XO#OOOOOO#OX>>,<1111,<1111,,1111,,1111,<1,111 ",
"<<<<>,><<<<,><<<<,>><<<,>><<<,>+++XOOOOOOOOOOX>>>,<111,,<111,,<1111,<1111,<,1111",
"<<<<>><<<<,><<<<,><><<,><><<,>++++$XXXXXXXXXX$>>>>,<11,1,<11,1,<1111,<1111,,1111",
"<<<,>><<<,>><<<,><<><,><<><,>++++$$>>>>>>>>>>$$>>>>,<1,11,<1,11,<111,,<111>,<111",
"<<,>+><<,><><<,><<<>,><<<>,>++++$$>,,,,,,,,,,>$$>>>>,<,111,<,111,<11,1,<11>>,<11",
"<,>++><,><<><,><<<<>><<<<>+++++$$>,<<<<,,<<<<,>$$>>>>>,1111,,1111,<1,11,<1>>>,<1",
",>+++>,><<<>,><<<<,><<<<,>++++$$><,<11<,,<11<,<>$$>>>>,<1111,<1111,<,111,<>>>>,<",
">++++>><<<<>><<<<,><<<<,>++++$$><<,>>>>>>>>>>,<<>$$>>>>,<1111,<1111,,1111,>>>>>,",
">++++><<<<,>><<<,>><<<,>++++$$><1>>>>>>>>>>>>>>1<>$$>>>>,<111,,<111,,<1111,>>>>,",
">+++><<<<,><><<,><><<,>++++$$2>>>>>,,,,,,,,,,>>>>>2$$>>>>,<11,1,<11,1,<1111,>>>,",
">>>>><<<,><<><,><<><,>++++$$32,>>,,$$OOOOOO$$,,>>,22$$>>>>,<1,11,<1,11,<111,,,,,",
"  <<><<,><<<>,><<<>,>++++$$3322,,$$OO######OO$$,,2232$$>>>>,<,111,<,111,<11,11  ",
" <<<><,><<<<>><<<<>+++++$$333322$$O##########O$$223332$$>>>>>,1111,,1111,<1,111 ",
"<<<<>,><<<<,><<<<,>++++$$33333332O####OOOO####O23333332$$>>>>,<1111,<1111,<,1111",
"<<<<>><<<<,><<<<,>++++$$333333332O#==OXXXXO==#O233333332$$>>>>,<1111,<1111,,1111",
"<<<,>+<<<,>><<<,>++++$$333333332O===OXXXXXXO===O233333332$$>>>>,<111,,<111>,<111",
"<<,>++<<,><><<,>++++$$3333333332#===OXX##XXO===#2333333332$$>>>>,<11,1,<11>>,<11",
"<,>+++<,><<><,>++++$$33333333332#===O#XXXX#O===#23333333332$$>>>>,<1,11,<1>>>,<1",
",>++++,><<<>,>++++$$333322234442#===O######O===#244432223332$$>>>>,<,111,<>>>>,<",
">+++++><<<<>+++++$$33333322344442#==;O####O;==#24444322333332$$>>>>>,1111,>>>>>,",
">++++><<<<,>++++$$333333333333332#===;OOOO;===#233333333333332$$>>>>,<1111,>>>>,",
">>>>><<<<,>++++$$3333344344444332$#===;;;;===#$2334444434433332$$>>>>,<1111,,,,,",
"     <<<,>++++$$333333343444443222$##======##$222344444343333332$$>>>>,<111     ",
"     <<,>++++$$33333333333333333333$$OOOOOO$$33333333333333333332$$>>>>,<11     ",
"     <,>++++$$33333333322223222223222$O##O$22232222232222333333332$$>>>>,<1     ",
"     ,>++++$$333333333222223222223222$O##O$222322222322222333333332$$>>>>,<     ",
"     ...OOO$33333322233333333333322OOOOOOOOOO22333333333333222333332$OOO...     ",
"     ...###2222222222222222222222OO;;==O;;===OO2222222222222222222222###...     ",
"     ...========================O;#;;;=O;;;=#O=O========================...     ",
"     . .#######################O;;====#O=####O#=O#######################. .     ",
"       .=OOO==##==###OO===####O;;==####O=####O###O####===OO###==##==OOO=.       ",
"       .O===#########===######O;=##=XXXXXXXXO####O######===#########===O.       ",
"      ..OOOOOOOOOOOOOOOOOOOOOOO=##XXXXXXXXXXXX##OOOOOOOOOOOOOOOOOOOOOOOO..      ",
"     .....XXX$22222222222222$$O#=XXXXXXXXXXXXXXO#O$$22222222222222$XXX.....     ",
"     .....OOX$223333333333222$O##XXX@@@XX@@@XXX##O$222333333333322$XOO.....     ",
"     .....##O$3333333333333222O==XX@@@XXXX@@@XX==O2223333333333333$O##.....     ",
"     .....=#O$3333333333333332OOXX@@&X****X&@@XXOO2333333333333333$O#=.....     ",
"     .....;#O$2233333333333332O##X@&&*XXXX*&@@X##O2333333333333322$O#;.....     ",
"     .....;#O$2223333333333332O##X@&@XXXXXX@&@X##O2333333333333222$O#;.....     ",
"     .....;#O$3333333333333332O##X@&@XXXXXX@&@X##O2333333333333333$O#;.....     ",
"     .. ..;#O$2333333333443332O##X@&@XXXXXX@&@X##O2333443333333332$O#;.. ..     ",
"     . ...;#O$3333333344444432O==X@&X*XXXX*X&@X==O2344444433333333$O#;... .     ",
"      ....;#O$2333333444444432OOXX@&&X****X&&@XXOO2344444443333332$O#;....      ",
"     .....;#O$2233333334444332O##X@@@&XXXX@*&@X##O2334444333333322$O#;.....     ",
"     .....=#O$3333333333334332O##X@XX@&@@&&&&@X##O2334333333333333$O#=.....     ",
"     .....;#O$2222322222333332O##X@*X@&@&&&*&@X##O2333332222232222$O#;.....     ",
"     .....;#O$2222322222333332O;;X@@@*&&&&&*&@X##O2333332222232222$O#;.....     ",
"     .....=#O$3333333333333332O==X@&&*&&&&&*&@X==O2333333333333333$O#=.....     ",
"     .....=#O$2222222322322222OOXX@&&@&&&*&&@@XXOO2222232232222222$O#=.....     ",
"      ....=#O$2222222322322$$$O##X@@&X@&&@&&&@X##O$$$2232232222222$O#=....      ",
"       ...OOOO$$$$$22$$$$$$22$O##X@@@X@@@X@@@@X##O$22$$$$$$22$$$$$OOOO...       ",
"        ..OOOOooooooooooooooooO##XXXXXXXXXXXXXX##OooooooooooooooooOOOO..        ",
"         ....................O%OO%:-%%---::%%%%OO%O....................         ",
"                           ..O-%%:---::---%%%%:%%-O..                           ",
"                            .O%---%%%%:-::::--::-%O.                            ",
"                            .O%:---%%---::::----:%O.                            ",
"                             .O%::------------::%O.                             ",
"                             .O%%%::::::::::::%%%O.                             ",
"                              .O%%%%%%%%%%%%%%%%O.                              ",
"                               .OOOOOOOOOOOOOOOO.                               ",
"                                ................                                "
};
